<?xml version="1.0" encoding="utf-8"?>
<!-- Generator: Adobe Illustrator 24.0.1, SVG Export Plug-In . SVG Version: 6.00 Build 0)  -->
<svg version="1.1" id="Camada_1" xmlns="http://www.w3.org/2000/svg" xmlns:xlink="http://www.w3.org/1999/xlink" x="0px" y="0px"
	 viewBox="0 0 141 226" style="enable-background:new 0 0 141 226;" xml:space="preserve">
<style type="text/css">
	.st0{fill:#369837;}
	.st1{fill:#281D16;}
	.st2{fill:#C91517;}
</style>
<g>
	<g>
		<g>
			<path class="st0" d="M141,161.39c0,0.27-0.29,0.49-0.65,0.49H0.65c-0.36,0-0.65-0.22-0.65-0.49c0-0.27,0.29-0.49,0.65-0.49
				h139.71C140.71,160.9,141,161.12,141,161.39"/>
			<path class="st1" d="M90.9,142.89c0.49-0.63,1.21-0.94,2.17-0.94c0.97,0,1.71,0.32,2.21,0.96c0.5,0.64,0.75,1.57,0.75,2.8
				c0,1.24-0.25,2.18-0.75,2.83c-0.5,0.65-1.23,0.97-2.19,0.97c-0.96,0-1.69-0.32-2.18-0.97c-0.5-0.65-0.74-1.59-0.74-2.82
				C90.17,144.45,90.41,143.51,90.9,142.89 M96.35,142.05c-0.8-0.9-1.88-1.35-3.23-1.35c-1.4,0-2.5,0.44-3.29,1.32
				c-0.79,0.88-1.19,2.11-1.19,3.69c0,1.02,0.18,1.91,0.55,2.67c0.37,0.76,0.88,1.34,1.56,1.75c0.67,0.41,1.44,0.61,2.31,0.61
				c1.4,0,2.5-0.44,3.3-1.33c0.8-0.88,1.19-2.12,1.19-3.69C97.55,144.16,97.15,142.95,96.35,142.05 M86.17,150.55v-6.31
				c0-1.24-0.3-2.13-0.88-2.7c-0.59-0.56-1.47-0.84-2.64-0.84c-0.66,0-1.27,0.13-1.81,0.39c-0.54,0.26-0.96,0.63-1.26,1.11H79.5
				l-0.24-1.32h-1.19v9.67h1.47v-5.07c0-1.26,0.23-2.16,0.71-2.71c0.47-0.55,1.21-0.82,2.23-0.82c0.77,0,1.33,0.19,1.69,0.58
				c0.36,0.39,0.54,0.97,0.54,1.76v6.26H86.17z M69.3,149.1c-0.32-0.28-0.48-0.68-0.48-1.21c0-0.68,0.26-1.18,0.77-1.49
				c0.52-0.32,1.36-0.5,2.52-0.54l1.47-0.06v0.88c0,0.9-0.26,1.6-0.78,2.1c-0.52,0.5-1.24,0.75-2.15,0.75
				C70.07,149.51,69.62,149.37,69.3,149.1 M75.05,150.55v-6.6c0-1.13-0.28-1.95-0.83-2.46c-0.56-0.51-1.41-0.77-2.57-0.77
				c-0.57,0-1.14,0.08-1.71,0.22c-0.57,0.15-1.09,0.35-1.57,0.61l0.45,1.12c1.02-0.5,1.93-0.74,2.74-0.74
				c0.72,0,1.24,0.18,1.57,0.54c0.33,0.36,0.49,0.92,0.49,1.68v0.6l-1.65,0.05c-3.13,0.09-4.69,1.12-4.69,3.07
				c0,0.91,0.27,1.61,0.82,2.11c0.54,0.49,1.3,0.74,2.26,0.74c0.72,0,1.32-0.11,1.8-0.32c0.48-0.22,0.96-0.63,1.45-1.23h0.07
				l0.29,1.38H75.05z M63.54,138.99c0.17,0.16,0.37,0.24,0.62,0.24c0.24,0,0.44-0.08,0.61-0.24c0.17-0.16,0.26-0.41,0.26-0.74
				c0-0.33-0.09-0.57-0.26-0.73c-0.17-0.16-0.37-0.24-0.61-0.24c-0.25,0-0.45,0.08-0.62,0.23c-0.17,0.16-0.25,0.4-0.25,0.74
				C63.3,138.58,63.38,138.83,63.54,138.99 M64.89,140.87h-1.47v9.67h1.47V140.87z M54.65,149.1c-0.32-0.28-0.48-0.68-0.48-1.21
				c0-0.68,0.26-1.18,0.77-1.49c0.52-0.32,1.36-0.5,2.52-0.54l1.47-0.06v0.88c0,0.9-0.26,1.6-0.78,2.1
				c-0.52,0.5-1.24,0.75-2.15,0.75C55.42,149.51,54.97,149.37,54.65,149.1 M60.4,150.55v-6.6c0-1.13-0.28-1.95-0.84-2.46
				c-0.55-0.51-1.41-0.77-2.57-0.77c-0.57,0-1.14,0.08-1.71,0.22c-0.57,0.15-1.09,0.35-1.57,0.61l0.45,1.12
				c1.02-0.5,1.93-0.74,2.74-0.74c0.72,0,1.24,0.18,1.57,0.54c0.33,0.36,0.49,0.92,0.49,1.68v0.6l-1.65,0.05
				c-3.13,0.09-4.69,1.12-4.69,3.07c0,0.91,0.27,1.61,0.82,2.11c0.55,0.49,1.3,0.74,2.26,0.74c0.72,0,1.32-0.11,1.8-0.32
				c0.48-0.22,0.96-0.63,1.44-1.23h0.07l0.29,1.38H60.4z M45.92,144.44c1.1,0,1.92,0.19,2.46,0.57c0.54,0.38,0.81,0.96,0.81,1.76
				c0,0.86-0.26,1.49-0.79,1.89c-0.53,0.4-1.31,0.6-2.36,0.6h-2.69v-4.83H45.92z M43.35,138.94h2.21c1.13,0,1.96,0.16,2.47,0.48
				c0.52,0.32,0.78,0.84,0.78,1.57c0,0.79-0.23,1.35-0.7,1.68c-0.47,0.33-1.23,0.5-2.29,0.5h-2.47V138.94z M41.84,150.55h4.51
				c1.4,0,2.49-0.32,3.28-0.97c0.78-0.65,1.17-1.55,1.17-2.7c0-1.72-0.98-2.76-2.95-3.09v-0.09c0.82-0.15,1.44-0.47,1.87-0.97
				c0.43-0.5,0.64-1.13,0.64-1.89c0-1.11-0.38-1.91-1.15-2.43c-0.77-0.51-2.01-0.77-3.72-0.77h-3.65V150.55z"/>
			<path class="st0" d="M79.09,16.56c0,0.93-0.75,1.67-1.67,1.67H63.58c-0.92,0-1.67-0.75-1.67-1.67V2.72
				c0-0.92,0.75-1.67,1.67-1.67h13.84c0.92,0,1.67,0.75,1.67,1.67V16.56z"/>
			<path class="st0" d="M99.72,16.56c0,0.93-0.75,1.67-1.67,1.67H84.2c-0.93,0-1.67-0.75-1.67-1.67V2.72c0-0.92,0.75-1.67,1.67-1.67
				h13.84c0.92,0,1.67,0.75,1.67,1.67V16.56z"/>
			<path class="st0" d="M99.72,57.8c0,0.92-0.75,1.67-1.67,1.67H84.2c-0.93,0-1.67-0.75-1.67-1.67V43.96c0-0.93,0.75-1.67,1.67-1.67
				h13.84c0.92,0,1.67,0.75,1.67,1.67V57.8z"/>
			<path class="st0" d="M58.47,37.17c0,0.93-0.75,1.67-1.67,1.67H42.96c-0.93,0-1.67-0.75-1.67-1.67V23.33
				c0-0.92,0.75-1.67,1.67-1.67H56.8c0.92,0,1.67,0.75,1.67,1.67V37.17z"/>
			<path class="st0" d="M79.09,37.17c0,0.93-0.75,1.67-1.67,1.67H63.58c-0.92,0-1.67-0.75-1.67-1.67V23.33
				c0-0.92,0.75-1.67,1.67-1.67h13.84c0.92,0,1.67,0.75,1.67,1.67V37.17z"/>
			<path class="st0" d="M58.47,57.8c0,0.92-0.75,1.67-1.67,1.67H42.96c-0.93,0-1.67-0.75-1.67-1.67V43.96
				c0-0.93,0.75-1.67,1.67-1.67H56.8c0.92,0,1.67,0.75,1.67,1.67V57.8z"/>
			<path class="st0" d="M79.09,57.8c0,0.92-0.75,1.67-1.67,1.67H63.58c-0.92,0-1.67-0.75-1.67-1.67V43.96
				c0-0.93,0.75-1.67,1.67-1.67h13.84c0.92,0,1.67,0.75,1.67,1.67V57.8z"/>
			<path class="st0" d="M58.47,78.45c0,0.93-0.75,1.67-1.67,1.67H42.96c-0.93,0-1.67-0.75-1.67-1.67V64.61
				c0-0.92,0.75-1.67,1.67-1.67H56.8c0.92,0,1.67,0.75,1.67,1.67V78.45z"/>
			<path class="st0" d="M79.09,78.45c0,0.93-0.75,1.67-1.67,1.67H63.58c-0.92,0-1.67-0.75-1.67-1.67V64.61
				c0-0.92,0.75-1.67,1.67-1.67h13.84c0.92,0,1.67,0.75,1.67,1.67V78.45z"/>
			<path class="st2" d="M59.33,9.64c0,5.22-4.23,9.45-9.45,9.45c-5.22,0-9.45-4.23-9.45-9.45c0-5.22,4.23-9.45,9.45-9.45
				C55.1,0.19,59.33,4.42,59.33,9.64"/>
			<rect x="8.25" y="92.14" class="st1" width="3.63" height="17.1"/>
			<path class="st1" d="M31.41,92.14h-3.27v8.09c0,0.92,0.06,2.49,0.18,4.71h-0.08l-7.44-12.81h-4.58v17.1h3.25v-8.05
				c0-0.97-0.07-2.6-0.22-4.89h0.11l7.45,12.93h4.62V92.14z"/>
			<path class="st1" d="M44.99,101.67c-0.59-0.77-1.69-1.53-3.29-2.3c-1.21-0.58-1.98-0.98-2.3-1.2c-0.32-0.22-0.56-0.45-0.71-0.69
				c-0.15-0.24-0.22-0.52-0.22-0.83c0-0.52,0.18-0.93,0.55-1.25c0.37-0.32,0.89-0.48,1.58-0.48c0.58,0,1.17,0.08,1.77,0.22
				c0.6,0.15,1.35,0.41,2.27,0.78l1.17-2.82c-0.88-0.38-1.73-0.68-2.54-0.89C42.45,92,41.6,91.9,40.71,91.9
				c-1.81,0-3.23,0.43-4.26,1.3c-1.03,0.86-1.54,2.05-1.54,3.57c0,0.8,0.16,1.51,0.47,2.11c0.31,0.6,0.73,1.13,1.25,1.58
				c0.52,0.45,1.31,0.92,2.35,1.41c1.12,0.53,1.86,0.92,2.22,1.16c0.36,0.24,0.64,0.49,0.83,0.75c0.19,0.26,0.28,0.56,0.28,0.89
				c0,0.6-0.21,1.05-0.64,1.36c-0.42,0.3-1.04,0.46-1.83,0.46c-0.66,0-1.4-0.1-2.2-0.32c-0.8-0.21-1.78-0.57-2.93-1.09v3.37
				c1.41,0.69,3.02,1.03,4.85,1.03c1.99,0,3.53-0.45,4.65-1.33c1.11-0.89,1.67-2.11,1.67-3.65
				C45.88,103.38,45.58,102.44,44.99,101.67"/>
			<path class="st1" d="M77.48,95.16h4.65v-3.02H69.2v3.02h4.65v14.08h3.63V95.16z M66.56,92.14h-3.63v17.1h3.63V92.14z
				 M55.65,95.16h4.65v-3.02H47.36v3.02h4.65v14.08h3.63V95.16z"/>
			<path class="st1" d="M95.16,92.14v10.44c0,1.32-0.27,2.3-0.8,2.92c-0.54,0.62-1.4,0.93-2.58,0.93c-1.23,0-2.11-0.31-2.64-0.92
				c-0.53-0.62-0.8-1.58-0.8-2.9V92.14h-3.62v11.02c0,1.96,0.61,3.5,1.83,4.62c1.22,1.13,2.93,1.69,5.13,1.69
				c1.46,0,2.73-0.25,3.8-0.76c1.07-0.51,1.89-1.24,2.45-2.19c0.57-0.95,0.85-2.06,0.85-3.32V92.14H95.16z"/>
			<polygon class="st1" points="109.63,95.16 114.28,95.16 114.28,92.14 101.35,92.14 101.35,95.16 106,95.16 106,109.24 
				109.63,109.24 			"/>
			<path class="st1" d="M121.08,96.35c0.73-0.97,1.82-1.46,3.27-1.46c2.88,0,4.32,1.93,4.32,5.78c0,3.84-1.45,5.77-4.34,5.77
				c-1.45,0-2.53-0.48-3.26-1.45c-0.72-0.97-1.09-2.41-1.09-4.32C119.98,98.76,120.35,97.32,121.08,96.35 M130.39,94.14
				c-1.4-1.51-3.41-2.27-6.04-2.27c-2.63,0-4.65,0.75-6.06,2.25c-1.41,1.5-2.12,3.67-2.12,6.52c0,2.85,0.7,5.03,2.11,6.55
				c1.41,1.52,3.42,2.28,6.05,2.28c2.62,0,4.64-0.76,6.04-2.28c1.41-1.52,2.11-3.7,2.11-6.52
				C132.48,97.83,131.79,95.66,130.39,94.14"/>
			<polygon class="st1" points="23.75,123.03 29.56,123.03 29.56,120.07 23.75,120.07 23.75,115.66 29.99,115.66 29.99,112.69 
				20.17,112.69 20.17,129.79 23.75,129.79 			"/>
			<path class="st1" d="M83.59,123.23l4.09,6.56h4.03c-0.78-1.12-2.46-3.61-5.04-7.45c1.01-0.44,1.8-1.06,2.35-1.84
				c0.56-0.78,0.83-1.68,0.83-2.68c0-1.72-0.56-3.01-1.67-3.85c-1.12-0.85-2.84-1.27-5.17-1.27h-4.99v17.1h3.63v-6.56H83.59z
				 M81.66,115.66h1.1c1.17,0,2.04,0.17,2.59,0.51c0.56,0.34,0.84,0.92,0.84,1.73c0,0.82-0.28,1.42-0.82,1.8
				c-0.55,0.38-1.39,0.57-2.54,0.57h-1.17V115.66z M74.46,126.8h-6.23v-4.41h5.8v-2.97h-5.8v-3.75h6.23v-2.97h-9.87v17.1h9.87V126.8
				z M52.02,126.8h-1.56v-11.13h1.93c3.25,0,4.87,1.84,4.87,5.51C57.27,124.92,55.52,126.8,52.02,126.8 M58.72,114.91
				c-1.55-1.48-3.72-2.21-6.51-2.21h-5.38v17.1h4.85c3.03,0,5.35-0.75,6.95-2.25c1.6-1.5,2.4-3.65,2.4-6.47
				C61.04,118.44,60.27,116.38,58.72,114.91 M43.26,126.8h-6.23v-4.41h5.8v-2.97h-5.8v-3.75h6.23v-2.97h-9.87v17.1h9.87V126.8z"/>
			<path class="st1" d="M97.87,122.68c1.22-3.94,1.96-6.41,2.21-7.4c0.06,0.28,0.17,0.66,0.31,1.15c0.14,0.48,0.79,2.57,1.94,6.26
				H97.87z M108.35,129.79l-6.07-17.17h-4.44l-6.05,17.17h3.91l1.24-4.07h6.25l1.24,4.07H108.35z"/>
			<polygon class="st1" points="121.13,129.79 121.13,126.8 114.19,126.8 114.19,112.69 110.56,112.69 110.56,129.79 			"/>
			<path class="st1" d="M45.41,170.33c-1.32,0-2.37,0.44-3.13,1.32c-0.77,0.88-1.15,2.09-1.15,3.62c0,1.58,0.37,2.79,1.11,3.65
				c0.74,0.86,1.79,1.29,3.16,1.29c0.84,0,1.8-0.15,2.87-0.45v1.23c-0.83,0.31-1.86,0.47-3.09,0.47c-1.77,0-3.14-0.54-4.11-1.61
				c-0.96-1.08-1.44-2.61-1.44-4.59c0-1.24,0.23-2.33,0.7-3.26c0.46-0.93,1.13-1.65,2.01-2.16c0.88-0.51,1.91-0.76,3.09-0.76
				c1.26,0,2.37,0.23,3.31,0.69l-0.59,1.2C47.23,170.54,46.32,170.33,45.41,170.33"/>
			<path class="st1" d="M56.24,181.29L55.96,180H55.9c-0.45,0.57-0.9,0.95-1.35,1.15c-0.45,0.2-1.01,0.3-1.68,0.3
				c-0.9,0-1.6-0.23-2.1-0.69c-0.51-0.46-0.76-1.12-0.76-1.97c0-1.82,1.46-2.78,4.37-2.87l1.53-0.05v-0.56
				c0-0.71-0.15-1.23-0.46-1.57c-0.3-0.34-0.79-0.51-1.46-0.51c-0.75,0-1.6,0.23-2.55,0.69l-0.42-1.05
				c0.44-0.24,0.93-0.43,1.46-0.57c0.53-0.14,1.06-0.21,1.59-0.21c1.08,0,1.87,0.24,2.39,0.72c0.52,0.48,0.78,1.24,0.78,2.3v6.16
				H56.24z M53.15,180.32c0.85,0,1.52-0.23,2.01-0.7c0.49-0.47,0.73-1.12,0.73-1.96v-0.82l-1.37,0.06
				c-1.09,0.04-1.87,0.21-2.35,0.51c-0.48,0.3-0.72,0.76-0.72,1.4c0,0.49,0.15,0.87,0.45,1.13
				C52.19,180.19,52.61,180.32,53.15,180.32"/>
			<path class="st1" d="M71.57,181.29v-5.87c0-0.72-0.15-1.26-0.46-1.62c-0.31-0.36-0.79-0.54-1.43-0.54
				c-0.85,0-1.48,0.24-1.89,0.73c-0.41,0.49-0.61,1.24-0.61,2.26v5.04h-1.37v-5.87c0-0.72-0.15-1.26-0.46-1.62
				c-0.31-0.36-0.79-0.54-1.44-0.54c-0.86,0-1.48,0.26-1.88,0.77c-0.4,0.51-0.6,1.35-0.6,2.52v4.73h-1.37v-9.03h1.11l0.22,1.24h0.07
				c0.26-0.44,0.62-0.78,1.09-1.03c0.47-0.25,0.99-0.37,1.58-0.37c1.41,0,2.33,0.51,2.77,1.53h0.07c0.27-0.47,0.66-0.85,1.17-1.12
				c0.51-0.27,1.09-0.41,1.75-0.41c1.02,0,1.79,0.26,2.29,0.79c0.51,0.52,0.76,1.36,0.76,2.51v5.89H71.57z"/>
			<path class="st1" d="M79.95,181.45c-0.59,0-1.12-0.11-1.61-0.33c-0.49-0.22-0.89-0.55-1.22-1h-0.1c0.07,0.53,0.1,1.03,0.1,1.5
				v3.71h-1.37v-13.08h1.11l0.19,1.23h0.07c0.35-0.49,0.76-0.85,1.23-1.07c0.47-0.22,1-0.33,1.61-0.33c1.2,0,2.12,0.41,2.77,1.23
				c0.65,0.82,0.98,1.97,0.98,3.44c0,1.48-0.33,2.63-0.99,3.45C82.05,181.04,81.13,181.45,79.95,181.45 M79.76,173.26
				c-0.92,0-1.59,0.26-2,0.77c-0.41,0.51-0.62,1.32-0.63,2.44v0.31c0,1.27,0.21,2.18,0.63,2.72c0.42,0.55,1.1,0.82,2.03,0.82
				c0.78,0,1.39-0.32,1.83-0.95c0.44-0.63,0.66-1.5,0.66-2.61c0-1.13-0.22-1.99-0.66-2.59C81.18,173.56,80.56,173.26,79.76,173.26"
				/>
			<path class="st1" d="M87.37,172.26v5.86c0,0.74,0.17,1.28,0.5,1.65c0.33,0.36,0.86,0.54,1.57,0.54c0.94,0,1.64-0.26,2.07-0.77
				c0.44-0.52,0.65-1.36,0.65-2.53v-4.74h1.37v9.03h-1.13l-0.2-1.21h-0.07c-0.28,0.44-0.67,0.79-1.17,1.02
				c-0.5,0.24-1.06,0.36-1.7,0.36c-1.1,0-1.92-0.26-2.47-0.78c-0.55-0.52-0.82-1.35-0.82-2.5v-5.9H87.37z"/>
			<path class="st1" d="M102.26,178.82c0,0.84-0.31,1.49-0.94,1.94c-0.63,0.46-1.5,0.68-2.64,0.68c-1.2,0-2.13-0.19-2.8-0.57v-1.27
				c0.43,0.22,0.9,0.39,1.4,0.52c0.5,0.13,0.98,0.19,1.44,0.19c0.71,0,1.26-0.11,1.65-0.34c0.39-0.23,0.58-0.57,0.58-1.04
				c0-0.35-0.15-0.65-0.46-0.9c-0.31-0.25-0.9-0.55-1.78-0.89c-0.84-0.31-1.44-0.59-1.79-0.82c-0.35-0.23-0.62-0.5-0.79-0.79
				c-0.17-0.3-0.26-0.65-0.26-1.06c0-0.73,0.3-1.31,0.9-1.74c0.6-0.43,1.42-0.64,2.46-0.64c0.97,0,1.92,0.2,2.85,0.59l-0.49,1.11
				c-0.91-0.37-1.73-0.56-2.46-0.56c-0.65,0-1.14,0.1-1.47,0.31c-0.33,0.2-0.49,0.48-0.49,0.84c0,0.24,0.06,0.45,0.19,0.62
				c0.12,0.17,0.32,0.33,0.6,0.49c0.27,0.15,0.8,0.38,1.58,0.67c1.07,0.39,1.79,0.78,2.17,1.18
				C102.07,177.73,102.26,178.23,102.26,178.82"/>
			<path class="st1" d="M31.68,189.48h3.4c1.6,0,2.75,0.24,3.47,0.72c0.71,0.48,1.07,1.23,1.07,2.26c0,0.71-0.2,1.3-0.6,1.77
				c-0.4,0.46-0.98,0.77-1.74,0.9v0.08c1.83,0.31,2.74,1.27,2.74,2.88c0,1.08-0.36,1.92-1.09,2.52c-0.73,0.6-1.74,0.91-3.05,0.91
				h-4.2V189.48z M33.08,194.64h2.31c0.99,0,1.7-0.15,2.13-0.46c0.43-0.31,0.65-0.83,0.65-1.57c0-0.68-0.24-1.16-0.72-1.46
				c-0.48-0.3-1.25-0.45-2.31-0.45h-2.06V194.64z M33.08,195.83v4.5h2.51c0.97,0,1.7-0.19,2.19-0.56c0.49-0.38,0.74-0.96,0.74-1.77
				c0-0.75-0.25-1.29-0.75-1.65c-0.5-0.35-1.27-0.53-2.29-0.53H33.08z"/>
			<path class="st1" d="M50.19,197c0,1.47-0.37,2.62-1.11,3.45c-0.74,0.83-1.76,1.24-3.07,1.24c-0.81,0-1.52-0.19-2.15-0.57
				c-0.63-0.38-1.11-0.92-1.45-1.63c-0.34-0.71-0.51-1.54-0.51-2.49c0-1.47,0.37-2.62,1.1-3.44c0.74-0.82,1.76-1.23,3.06-1.23
				c1.26,0,2.27,0.42,3.01,1.26C49.82,194.43,50.19,195.57,50.19,197 M43.31,197c0,1.15,0.23,2.03,0.69,2.63
				c0.46,0.6,1.14,0.91,2.03,0.91c0.89,0,1.57-0.3,2.04-0.9c0.46-0.6,0.7-1.48,0.7-2.64c0-1.15-0.23-2.02-0.7-2.61
				c-0.46-0.6-1.15-0.89-2.05-0.89c-0.89,0-1.57,0.29-2.03,0.88C43.54,194.96,43.31,195.84,43.31,197"/>
			<path class="st1" d="M64.09,201.52v-5.87c0-0.72-0.15-1.26-0.46-1.62c-0.31-0.36-0.79-0.54-1.43-0.54
				c-0.85,0-1.48,0.24-1.89,0.73c-0.41,0.49-0.61,1.24-0.61,2.26v5.04h-1.37v-5.87c0-0.72-0.15-1.26-0.46-1.62
				c-0.31-0.36-0.79-0.54-1.44-0.54c-0.86,0-1.48,0.26-1.88,0.77c-0.4,0.51-0.6,1.35-0.6,2.52v4.73h-1.37v-9.03h1.11l0.22,1.24h0.07
				c0.26-0.44,0.62-0.78,1.09-1.03c0.47-0.25,0.99-0.37,1.58-0.37c1.41,0,2.33,0.51,2.77,1.53h0.07c0.27-0.47,0.66-0.85,1.17-1.12
				c0.51-0.27,1.09-0.41,1.75-0.41c1.02,0,1.79,0.26,2.29,0.79c0.51,0.52,0.76,1.36,0.76,2.51v5.89H64.09z"/>
			<path class="st1" d="M71.1,204.7c-0.52,0-0.92-0.07-1.22-0.22v-1.19c0.39,0.11,0.8,0.16,1.22,0.16c0.54,0,0.96-0.16,1.24-0.49
				c0.28-0.33,0.42-0.8,0.42-1.43v-12.04h1.4v11.92c0,1.04-0.26,1.85-0.79,2.43C72.85,204.41,72.09,204.7,71.1,204.7"/>
			<path class="st1" d="M80.97,201.69c-1.33,0-2.39-0.41-3.16-1.22c-0.77-0.81-1.16-1.94-1.16-3.38c0-1.45,0.36-2.61,1.07-3.47
				c0.72-0.86,1.68-1.29,2.89-1.29c1.13,0,2.03,0.37,2.68,1.12c0.66,0.74,0.99,1.72,0.99,2.94v0.86h-6.22
				c0.03,1.06,0.3,1.86,0.8,2.41c0.51,0.55,1.22,0.82,2.15,0.82c0.97,0,1.93-0.2,2.88-0.61v1.22c-0.48,0.21-0.94,0.36-1.37,0.45
				C82.1,201.64,81.58,201.69,80.97,201.69 M80.6,193.48c-0.72,0-1.3,0.24-1.73,0.71c-0.43,0.47-0.69,1.13-0.76,1.96h4.72
				c0-0.86-0.19-1.52-0.58-1.98C81.86,193.71,81.31,193.48,80.6,193.48"/>
			<path class="st1" d="M92.44,199.06c0,0.84-0.31,1.49-0.94,1.94c-0.63,0.46-1.5,0.68-2.64,0.68c-1.2,0-2.13-0.19-2.8-0.57v-1.27
				c0.43,0.22,0.9,0.39,1.4,0.52c0.5,0.13,0.98,0.19,1.44,0.19c0.71,0,1.26-0.11,1.65-0.34c0.39-0.23,0.58-0.57,0.58-1.04
				c0-0.35-0.15-0.65-0.46-0.9c-0.31-0.25-0.9-0.55-1.78-0.89c-0.84-0.31-1.44-0.59-1.79-0.82c-0.35-0.23-0.62-0.5-0.79-0.79
				c-0.17-0.3-0.26-0.65-0.26-1.06c0-0.73,0.3-1.31,0.9-1.74c0.6-0.43,1.42-0.64,2.46-0.64c0.97,0,1.92,0.2,2.85,0.59l-0.49,1.11
				c-0.91-0.37-1.73-0.56-2.46-0.56c-0.65,0-1.14,0.1-1.47,0.31c-0.33,0.2-0.49,0.48-0.49,0.84c0,0.24,0.06,0.45,0.19,0.62
				c0.12,0.17,0.32,0.33,0.6,0.49c0.27,0.15,0.8,0.38,1.58,0.67c1.07,0.39,1.79,0.78,2.17,1.18
				C92.25,197.97,92.44,198.46,92.44,199.06"/>
			<path class="st1" d="M95.95,192.5v5.86c0,0.74,0.17,1.28,0.5,1.65c0.33,0.36,0.86,0.54,1.57,0.54c0.94,0,1.64-0.26,2.07-0.77
				c0.44-0.52,0.65-1.36,0.65-2.53v-4.74h1.37v9.03h-1.13l-0.2-1.21h-0.07c-0.28,0.44-0.67,0.79-1.17,1.02
				c-0.5,0.24-1.06,0.36-1.7,0.36c-1.1,0-1.92-0.26-2.47-0.78c-0.55-0.52-0.82-1.35-0.82-2.5v-5.9H95.95z"/>
			<path class="st1" d="M110.84,199.06c0,0.84-0.31,1.49-0.94,1.94c-0.63,0.46-1.5,0.68-2.64,0.68c-1.2,0-2.13-0.19-2.8-0.57v-1.27
				c0.43,0.22,0.9,0.39,1.4,0.52c0.5,0.13,0.98,0.19,1.44,0.19c0.71,0,1.26-0.11,1.65-0.34c0.39-0.23,0.58-0.57,0.58-1.04
				c0-0.35-0.15-0.65-0.46-0.9c-0.31-0.25-0.9-0.55-1.78-0.89c-0.84-0.31-1.44-0.59-1.79-0.82c-0.35-0.23-0.62-0.5-0.79-0.79
				c-0.17-0.3-0.26-0.65-0.26-1.06c0-0.73,0.3-1.31,0.9-1.74c0.6-0.43,1.42-0.64,2.46-0.64c0.97,0,1.92,0.2,2.85,0.59l-0.49,1.11
				c-0.91-0.37-1.73-0.56-2.46-0.56c-0.65,0-1.14,0.1-1.47,0.31c-0.33,0.2-0.49,0.48-0.49,0.84c0,0.24,0.06,0.45,0.19,0.62
				c0.12,0.17,0.32,0.33,0.6,0.49c0.27,0.15,0.8,0.38,1.58,0.67c1.07,0.39,1.79,0.78,2.17,1.18
				C110.65,197.97,110.84,198.46,110.84,199.06"/>
			<path class="st1" d="M47.44,220.55h-0.07c-0.63,0.92-1.58,1.38-2.83,1.38c-1.18,0-2.1-0.4-2.75-1.21
				c-0.66-0.81-0.98-1.96-0.98-3.44c0-1.49,0.33-2.64,0.99-3.47c0.66-0.82,1.58-1.23,2.75-1.23c1.22,0,2.16,0.44,2.82,1.33h0.11
				l-0.06-0.65l-0.03-0.63v-3.67h1.37v12.81h-1.11L47.44,220.55z M44.7,220.78c0.93,0,1.61-0.25,2.03-0.76
				c0.42-0.51,0.63-1.33,0.63-2.46v-0.29c0-1.28-0.21-2.19-0.64-2.74c-0.43-0.55-1.11-0.82-2.04-0.82c-0.8,0-1.42,0.31-1.84,0.94
				c-0.43,0.62-0.64,1.5-0.64,2.64c0,1.15,0.21,2.02,0.63,2.61C43.27,220.49,43.89,220.78,44.7,220.78"/>
			<path class="st1" d="M57.18,221.76l-0.27-1.28h-0.07c-0.45,0.57-0.9,0.95-1.35,1.15c-0.45,0.2-1.01,0.3-1.68,0.3
				c-0.9,0-1.6-0.23-2.1-0.69c-0.51-0.46-0.76-1.12-0.76-1.97c0-1.82,1.46-2.78,4.37-2.87l1.53-0.05v-0.56
				c0-0.71-0.15-1.23-0.46-1.57c-0.3-0.34-0.79-0.51-1.46-0.51c-0.75,0-1.6,0.23-2.55,0.69l-0.42-1.05
				c0.44-0.24,0.93-0.43,1.46-0.57c0.53-0.14,1.06-0.21,1.59-0.21c1.08,0,1.87,0.24,2.39,0.72c0.52,0.48,0.78,1.24,0.78,2.3v6.16
				H57.18z M54.09,220.8c0.85,0,1.52-0.23,2.01-0.7c0.49-0.47,0.73-1.12,0.73-1.96v-0.82l-1.37,0.06c-1.09,0.04-1.87,0.21-2.35,0.51
				c-0.48,0.3-0.72,0.76-0.72,1.4c0,0.49,0.15,0.87,0.45,1.13C53.13,220.67,53.55,220.8,54.09,220.8"/>
			<polygon class="st1" points="65.6,221.76 65.6,209.72 67,209.72 67,220.49 72.31,220.49 72.31,221.76 			"/>
			<path class="st1" d="M79.69,221.76l-0.27-1.28h-0.07c-0.45,0.57-0.9,0.95-1.35,1.15c-0.45,0.2-1.01,0.3-1.67,0.3
				c-0.9,0-1.6-0.23-2.1-0.69c-0.51-0.46-0.76-1.12-0.76-1.97c0-1.82,1.46-2.78,4.37-2.87l1.53-0.05v-0.56
				c0-0.71-0.15-1.23-0.46-1.57c-0.31-0.34-0.79-0.51-1.46-0.51c-0.75,0-1.6,0.23-2.55,0.69l-0.42-1.05
				c0.44-0.24,0.93-0.43,1.46-0.57c0.53-0.14,1.06-0.21,1.59-0.21c1.08,0,1.87,0.24,2.39,0.72c0.52,0.48,0.78,1.24,0.78,2.3v6.16
				H79.69z M76.61,220.8c0.85,0,1.52-0.23,2-0.7c0.49-0.47,0.73-1.12,0.73-1.96v-0.82l-1.37,0.06c-1.09,0.04-1.87,0.21-2.35,0.51
				c-0.48,0.3-0.72,0.76-0.72,1.4c0,0.49,0.15,0.87,0.45,1.13C75.65,220.67,76.07,220.8,76.61,220.8"/>
			<path class="st1" d="M87.72,221.93c-0.59,0-1.12-0.11-1.61-0.33c-0.49-0.22-0.89-0.55-1.22-1h-0.1c0.07,0.53,0.1,1.03,0.1,1.5
				v3.71h-1.37v-13.08h1.11l0.19,1.23h0.07c0.35-0.49,0.76-0.85,1.23-1.07c0.47-0.22,1-0.33,1.61-0.33c1.2,0,2.12,0.41,2.77,1.23
				c0.65,0.82,0.98,1.97,0.98,3.44c0,1.48-0.33,2.63-0.99,3.45C89.82,221.52,88.9,221.93,87.72,221.93 M87.52,213.73
				c-0.92,0-1.59,0.26-2,0.77c-0.41,0.51-0.62,1.32-0.63,2.44v0.31c0,1.27,0.21,2.18,0.63,2.72c0.42,0.55,1.1,0.82,2.03,0.82
				c0.78,0,1.39-0.32,1.83-0.95c0.44-0.63,0.66-1.5,0.66-2.61c0-1.13-0.22-1.99-0.66-2.59C88.95,214.04,88.33,213.73,87.52,213.73"
				/>
			<path class="st1" d="M99.41,221.76l-0.27-1.28h-0.07c-0.45,0.57-0.9,0.95-1.35,1.15c-0.45,0.2-1.01,0.3-1.67,0.3
				c-0.9,0-1.6-0.23-2.1-0.69c-0.51-0.46-0.76-1.12-0.76-1.97c0-1.82,1.46-2.78,4.37-2.87l1.53-0.05v-0.56
				c0-0.71-0.15-1.23-0.46-1.57c-0.31-0.34-0.79-0.51-1.46-0.51c-0.75,0-1.6,0.23-2.55,0.69l-0.42-1.05
				c0.44-0.24,0.93-0.43,1.46-0.57c0.53-0.14,1.06-0.21,1.59-0.21c1.08,0,1.87,0.24,2.39,0.72c0.52,0.48,0.78,1.24,0.78,2.3v6.16
				H99.41z M96.32,220.8c0.85,0,1.52-0.23,2-0.7c0.49-0.47,0.73-1.12,0.73-1.96v-0.82l-1.37,0.06c-1.09,0.04-1.87,0.21-2.35,0.51
				c-0.48,0.3-0.72,0.76-0.72,1.4c0,0.49,0.15,0.87,0.45,1.13C95.36,220.67,95.78,220.8,96.32,220.8"/>
		</g>
	</g>
</g>
</svg>
